<?xml version="1.0" encoding="utf-8"?>
<!-- Generator: Adobe Illustrator 23.0.5, SVG Export Plug-In . SVG Version: 6.00 Build 0)  -->
<svg version="1.1" id="publicdomainvectors.org" xmlns="http://www.w3.org/2000/svg" xmlns:xlink="http://www.w3.org/1999/xlink"
	 x="0px" y="0px" viewBox="0 0 654.6 353.09" style="enable-background:new 0 0 654.6 353.09;" xml:space="preserve">
<style type="text/css">
	.st0{fill-rule:evenodd;clip-rule:evenodd;fill:#CCCCCC;}
	.st1{fill-rule:evenodd;clip-rule:evenodd;fill:#1A1A1A;}
	.st2{fill-rule:evenodd;clip-rule:evenodd;fill:#ED5826;}
	.st3{fill-rule:evenodd;clip-rule:evenodd;fill:#990000;}
	.st4{fill-rule:evenodd;clip-rule:evenodd;fill:#CC3300;}
	.st5{fill-rule:evenodd;clip-rule:evenodd;}
	.st6{fill-rule:evenodd;clip-rule:evenodd;fill:#333333;}
	.st7{fill-rule:evenodd;clip-rule:evenodd;fill:#F7F7F7;}
	.st8{fill-rule:evenodd;clip-rule:evenodd;fill:#471C1C;}
	.st9{fill-rule:evenodd;clip-rule:evenodd;fill:#FFCC99;}
</style>
<g>
	<path class="st0" d="M77.72,310.9h508.3c11.6,0,21.09,9.49,21.09,21.09l0,0c0,11.6-9.49,21.1-21.09,21.1H77.72
		c-11.6,0-21.09-9.49-21.09-21.1l0,0C56.62,320.39,66.11,310.9,77.72,310.9z"/>
	<g>
		<polygon class="st1" points="0,202.18 93.07,211.89 93.07,232.52 0,242.24 		"/>
		<path class="st2" d="M108.42,105.39h54.69c26.65,0,48.45,21.8,48.45,48.45v41.74c0,26.65-21.8,48.45-48.45,48.45h-54.69
			c-26.65,0-48.45-21.8-48.45-48.45v-41.74C59.97,127.19,81.77,105.39,108.42,105.39z"/>
		<path class="st3" d="M140.91,144.53L140.91,144.53c14.33-13.65,37.11-12.98,50.87,1.24l103.5,106.94l-87.13,14.6l-68.48-71.92
			C126.02,181.07,126.58,158.18,140.91,144.53z"/>
		<polygon class="st4" points="428.33,116.48 654.6,256.63 517.2,261.92 475.57,189.82 421.14,128.55 		"/>
		<path class="st5" d="M406.28,155.71c-1.83,3.27-5.97,4.44-9.24,2.6c-3.27-1.83-4.44-5.97-2.61-9.24l39.1-69.8
			c1.83-3.27,5.97-4.44,9.24-2.6c3.27,1.83,4.44,5.97,2.6,9.24L406.28,155.71z"/>
		<path class="st3" d="M292.16,203.21L375,170.53c7.95-3.13,15.98-2.8,23.64,0.98l88.06,43.45l-25.92,28.82l-52.97-25.09
			c-8.68-4.11-17.94-3.86-26.39,0.71l-38.33,20.72l-62.62-3.8L292.16,203.21z"/>
		<polygon class="st4" points="37.17,229.76 184.95,229.76 654.6,256.63 628.21,283.5 37.17,283.5 		"/>
		<path class="st6" d="M160.2,331.64c38.46,0,69.83-31.37,69.83-69.83c0-38.46-31.37-69.83-69.83-69.83
			c-38.46,0-69.83,31.37-69.83,69.83C90.37,300.27,121.74,331.64,160.2,331.64z"/>
		<path class="st7" d="M160.2,303.83c23.14,0,42.02-18.88,42.02-42.02s-18.87-42.02-42.02-42.02s-42.02,18.88-42.02,42.02
			S137.06,303.83,160.2,303.83z"/>
		<path class="st0" d="M160.2,296.03c18.85,0,34.22-15.37,34.22-34.22c0-18.85-15.37-34.22-34.22-34.22
			c-18.85,0-34.22,15.37-34.22,34.22C125.98,280.66,141.35,296.03,160.2,296.03z"/>
		<path class="st7" d="M160.2,281.16c10.66,0,19.35-8.69,19.35-19.35c0-10.66-8.69-19.35-19.35-19.35
			c-10.66,0-19.35,8.69-19.35,19.35C140.85,272.47,149.55,281.16,160.2,281.16z"/>
		<path class="st6" d="M517.2,331.64c38.46,0,69.83-31.37,69.83-69.83c0-38.46-31.37-69.83-69.83-69.83
			c-38.46,0-69.83,31.37-69.83,69.83C447.37,300.27,478.74,331.64,517.2,331.64z"/>
		<path class="st7" d="M517.2,303.83c23.14,0,42.02-18.88,42.02-42.02s-18.88-42.02-42.02-42.02c-23.14,0-42.02,18.88-42.02,42.02
			S494.05,303.83,517.2,303.83z"/>
		<path class="st0" d="M517.2,296.03c18.85,0,34.22-15.37,34.22-34.22c0-18.85-15.38-34.22-34.22-34.22
			c-18.85,0-34.22,15.37-34.22,34.22C482.97,280.66,498.35,296.03,517.2,296.03z"/>
		<path class="st7" d="M517.2,281.16c10.66,0,19.35-8.69,19.35-19.35c0-10.66-8.69-19.35-19.35-19.35
			c-10.66,0-19.35,8.69-19.35,19.35C497.84,272.47,506.54,281.16,517.2,281.16z"/>
		<rect x="206.52" y="72.89" class="st1" width="43.65" height="64.29"/>
		<path class="st4" d="M184.38,77.43c-21.03-75.76,62.59-93.55,98.74-63.73c20.52,16.93,34.61,45.04,29.24,77.38
			c-0.12,0.71-0.33,1.79-0.64,3.15c-1.89,8.23-7.17,14.48-14.96,17.74c-7.8,3.25-15.94,2.61-23.13-1.84
			c-15.59-9.64-35.66-14.36-66.66-15.1C196.21,94.78,187.25,87.8,184.38,77.43z"/>
		<path class="st8" d="M301.83,35.47c7.5,12.5,11.99,27.39,11.63,43.66H271.3c-11.15,0-20.28-9.82-20.28-21.83V45.06
			c0-5.28,4.01-9.59,8.92-9.59H301.83z"/>
		<path class="st4" d="M214.09,120.81L214.09,120.81c14.33-13.65,37.22-13.09,50.87,1.24l68.48,71.92l-52.11,49.63l-68.48-71.92
			C199.2,157.35,199.76,134.46,214.09,120.81z"/>
		<path class="st3" d="M249.46,118.7h123.53v31.18H249.46c-8.58,0-15.59-7.02-15.59-15.59l0,0
			C233.87,125.72,240.88,118.7,249.46,118.7z"/>
		<path class="st9" d="M375.87,126.14h12.95l7.66-7.66c2.56-2.56,5.68-3.85,9.3-3.85h7.99l-2.92,5.05l14.72,3.95l-11.28,19.54
			c-3.22,5.59-9.58,8.22-15.81,6.55l-10.97-2.94l-5.89-5.28h-8.64v-15.35H375.87z"/>
	</g>
</g>
</svg>
